<mxfile host="app.diagrams.net" modified="2024-01-25T13:25:39.563Z" agent="Mozilla/5.0 (Windows NT 10.0; Win64; x64) AppleWebKit/537.36 (KHTML, like Gecko) Chrome/120.0.0.0 Safari/537.36" etag="nxk3WZuTROFxYiKQyrEM" version="23.0.1" type="device">
  <diagram name="Página-1" id="PrvriOr2HfXxMd0bokoy">
    <mxGraphModel dx="1434" dy="739" grid="0" gridSize="10" guides="1" tooltips="1" connect="1" arrows="1" fold="1" page="1" pageScale="1" pageWidth="827" pageHeight="1169" math="0" shadow="0">
      <root>
        <mxCell id="0" />
        <mxCell id="1" parent="0" />
        <mxCell id="uZOT7oCsHmyGkdrWQbir-1" value="Formador" style="shape=umlActor;verticalLabelPosition=bottom;verticalAlign=top;html=1;" parent="1" vertex="1">
          <mxGeometry x="285" y="56" width="30" height="60" as="geometry" />
        </mxCell>
        <mxCell id="uZOT7oCsHmyGkdrWQbir-2" value="Login" style="rounded=0;whiteSpace=wrap;html=1;" parent="1" vertex="1">
          <mxGeometry x="420" y="106" width="80" height="30" as="geometry" />
        </mxCell>
        <mxCell id="uZOT7oCsHmyGkdrWQbir-3" value="Base de Dados" style="rounded=0;whiteSpace=wrap;html=1;" parent="1" vertex="1">
          <mxGeometry x="560" y="106" width="90" height="30" as="geometry" />
        </mxCell>
        <mxCell id="uZOT7oCsHmyGkdrWQbir-4" value="Criar Perfil Formador" style="rounded=0;whiteSpace=wrap;html=1;" parent="1" vertex="1">
          <mxGeometry x="704" y="106" width="120" height="40" as="geometry" />
        </mxCell>
        <mxCell id="uZOT7oCsHmyGkdrWQbir-10" value="" style="endArrow=none;dashed=1;html=1;rounded=0;" parent="1" source="uZOT7oCsHmyGkdrWQbir-8" edge="1">
          <mxGeometry width="50" height="50" relative="1" as="geometry">
            <mxPoint x="300" y="717.6666666666666" as="sourcePoint" />
            <mxPoint x="300" y="136" as="targetPoint" />
          </mxGeometry>
        </mxCell>
        <mxCell id="uZOT7oCsHmyGkdrWQbir-11" value="" style="endArrow=none;dashed=1;html=1;rounded=0;" parent="1" edge="1">
          <mxGeometry width="50" height="50" relative="1" as="geometry">
            <mxPoint x="300" y="893" as="sourcePoint" />
            <mxPoint x="300" y="848" as="targetPoint" />
          </mxGeometry>
        </mxCell>
        <mxCell id="uZOT7oCsHmyGkdrWQbir-8" value="" style="html=1;points=[[0,0,0,0,5],[0,1,0,0,-5],[1,0,0,0,5],[1,1,0,0,-5]];perimeter=orthogonalPerimeter;outlineConnect=0;targetShapes=umlLifeline;portConstraint=eastwest;newEdgeStyle={&quot;curved&quot;:0,&quot;rounded&quot;:0};" parent="1" vertex="1">
          <mxGeometry x="295" y="156" width="10" height="717" as="geometry" />
        </mxCell>
        <mxCell id="uZOT7oCsHmyGkdrWQbir-12" value="" style="endArrow=none;dashed=1;html=1;rounded=0;exitX=0.538;exitY=0.667;exitDx=0;exitDy=0;exitPerimeter=0;" parent="1" source="uZOT7oCsHmyGkdrWQbir-67" edge="1">
          <mxGeometry width="50" height="50" relative="1" as="geometry">
            <mxPoint x="460" y="1076" as="sourcePoint" />
            <mxPoint x="460" y="136" as="targetPoint" />
          </mxGeometry>
        </mxCell>
        <mxCell id="uZOT7oCsHmyGkdrWQbir-13" value="" style="html=1;points=[[0,0,0,0,5],[0,1,0,0,-5],[1,0,0,0,5],[1,1,0,0,-5]];perimeter=orthogonalPerimeter;outlineConnect=0;targetShapes=umlLifeline;portConstraint=eastwest;newEdgeStyle={&quot;curved&quot;:0,&quot;rounded&quot;:0};" parent="1" vertex="1">
          <mxGeometry x="455" y="156" width="10" height="150" as="geometry" />
        </mxCell>
        <mxCell id="uZOT7oCsHmyGkdrWQbir-18" value="" style="endArrow=none;dashed=1;html=1;rounded=0;exitX=0.5;exitY=1;exitDx=0;exitDy=0;" parent="1" source="uZOT7oCsHmyGkdrWQbir-66" edge="1">
          <mxGeometry width="50" height="50" relative="1" as="geometry">
            <mxPoint x="605" y="1076" as="sourcePoint" />
            <mxPoint x="605" y="136" as="targetPoint" />
          </mxGeometry>
        </mxCell>
        <mxCell id="uZOT7oCsHmyGkdrWQbir-19" value="" style="html=1;points=[[0,0,0,0,5],[0,1,0,0,-5],[1,0,0,0,5],[1,1,0,0,-5]];perimeter=orthogonalPerimeter;outlineConnect=0;targetShapes=umlLifeline;portConstraint=eastwest;newEdgeStyle={&quot;curved&quot;:0,&quot;rounded&quot;:0};" parent="1" vertex="1">
          <mxGeometry x="600" y="156" width="10" height="626" as="geometry" />
        </mxCell>
        <mxCell id="uZOT7oCsHmyGkdrWQbir-33" value="" style="endArrow=none;dashed=1;html=1;rounded=0;exitX=0.525;exitY=0.7;exitDx=0;exitDy=0;exitPerimeter=0;" parent="1" source="uZOT7oCsHmyGkdrWQbir-65" edge="1">
          <mxGeometry width="50" height="50" relative="1" as="geometry">
            <mxPoint x="764" y="956" as="sourcePoint" />
            <mxPoint x="764" y="147" as="targetPoint" />
          </mxGeometry>
        </mxCell>
        <mxCell id="uZOT7oCsHmyGkdrWQbir-34" value="" style="html=1;points=[[0,0,0,0,5],[0,1,0,0,-5],[1,0,0,0,5],[1,1,0,0,-5]];perimeter=orthogonalPerimeter;outlineConnect=0;targetShapes=umlLifeline;portConstraint=eastwest;newEdgeStyle={&quot;curved&quot;:0,&quot;rounded&quot;:0};" parent="1" vertex="1">
          <mxGeometry x="759" y="329" width="10" height="216" as="geometry" />
        </mxCell>
        <mxCell id="uZOT7oCsHmyGkdrWQbir-39" value="Main View" style="rounded=0;whiteSpace=wrap;html=1;" parent="1" vertex="1">
          <mxGeometry x="850" y="106" width="90" height="30" as="geometry" />
        </mxCell>
        <mxCell id="uZOT7oCsHmyGkdrWQbir-40" value="" style="endArrow=none;dashed=1;html=1;rounded=0;exitX=0.5;exitY=0;exitDx=0;exitDy=0;" parent="1" source="uZOT7oCsHmyGkdrWQbir-64" edge="1">
          <mxGeometry width="50" height="50" relative="1" as="geometry">
            <mxPoint x="895" y="826" as="sourcePoint" />
            <mxPoint x="895" y="136" as="targetPoint" />
          </mxGeometry>
        </mxCell>
        <mxCell id="uZOT7oCsHmyGkdrWQbir-41" value="" style="html=1;points=[[0,0,0,0,5],[0,1,0,0,-5],[1,0,0,0,5],[1,1,0,0,-5]];perimeter=orthogonalPerimeter;outlineConnect=0;targetShapes=umlLifeline;portConstraint=eastwest;newEdgeStyle={&quot;curved&quot;:0,&quot;rounded&quot;:0};" parent="1" vertex="1">
          <mxGeometry x="890" y="551" width="10" height="359" as="geometry" />
        </mxCell>
        <mxCell id="uZOT7oCsHmyGkdrWQbir-48" value="Preencher Horario" style="rounded=0;whiteSpace=wrap;html=1;" parent="1" vertex="1">
          <mxGeometry x="990" y="106" width="90" height="40" as="geometry" />
        </mxCell>
        <mxCell id="uZOT7oCsHmyGkdrWQbir-49" value="Cursos / Módulos / Horários" style="rounded=0;whiteSpace=wrap;html=1;" parent="1" vertex="1">
          <mxGeometry x="1120" y="106" width="120" height="40" as="geometry" />
        </mxCell>
        <mxCell id="uZOT7oCsHmyGkdrWQbir-51" value="" style="endArrow=none;dashed=1;html=1;rounded=0;exitX=0.533;exitY=0.45;exitDx=0;exitDy=0;exitPerimeter=0;" parent="1" source="uZOT7oCsHmyGkdrWQbir-63" edge="1">
          <mxGeometry width="50" height="50" relative="1" as="geometry">
            <mxPoint x="1035" y="876" as="sourcePoint" />
            <mxPoint x="1035" y="144" as="targetPoint" />
          </mxGeometry>
        </mxCell>
        <mxCell id="uZOT7oCsHmyGkdrWQbir-50" value="" style="html=1;points=[[0,0,0,0,5],[0,1,0,0,-5],[1,0,0,0,5],[1,1,0,0,-5]];perimeter=orthogonalPerimeter;outlineConnect=0;targetShapes=umlLifeline;portConstraint=eastwest;newEdgeStyle={&quot;curved&quot;:0,&quot;rounded&quot;:0};" parent="1" vertex="1">
          <mxGeometry x="1030" y="629" width="10" height="160" as="geometry" />
        </mxCell>
        <mxCell id="uZOT7oCsHmyGkdrWQbir-57" value="" style="endArrow=none;dashed=1;html=1;rounded=0;exitX=0.5;exitY=0;exitDx=0;exitDy=0;" parent="1" source="uZOT7oCsHmyGkdrWQbir-62" edge="1">
          <mxGeometry width="50" height="50" relative="1" as="geometry">
            <mxPoint x="1185" y="876" as="sourcePoint" />
            <mxPoint x="1185" y="143" as="targetPoint" />
          </mxGeometry>
        </mxCell>
        <mxCell id="uZOT7oCsHmyGkdrWQbir-56" value="" style="html=1;points=[[0,0,0,0,5],[0,1,0,0,-5],[1,0,0,0,5],[1,1,0,0,-5]];perimeter=orthogonalPerimeter;outlineConnect=0;targetShapes=umlLifeline;portConstraint=eastwest;newEdgeStyle={&quot;curved&quot;:0,&quot;rounded&quot;:0};" parent="1" vertex="1">
          <mxGeometry x="1180" y="629" width="10" height="210" as="geometry" />
        </mxCell>
        <mxCell id="uZOT7oCsHmyGkdrWQbir-60" value="" style="endArrow=open;html=1;rounded=0;endFill=0;dashed=1;" parent="1" edge="1">
          <mxGeometry width="50" height="50" relative="1" as="geometry">
            <mxPoint x="884" y="899" as="sourcePoint" />
            <mxPoint x="350" y="900" as="targetPoint" />
          </mxGeometry>
        </mxCell>
        <mxCell id="uZOT7oCsHmyGkdrWQbir-61" value="Display Info" style="text;html=1;strokeColor=none;fillColor=none;align=center;verticalAlign=middle;whiteSpace=wrap;rounded=0;" parent="1" vertex="1">
          <mxGeometry x="469" y="872" width="78" height="30" as="geometry" />
        </mxCell>
        <mxCell id="uZOT7oCsHmyGkdrWQbir-62" value="Cursos / Módulos / Horários" style="rounded=0;whiteSpace=wrap;html=1;" parent="1" vertex="1">
          <mxGeometry x="1125" y="939" width="120" height="40" as="geometry" />
        </mxCell>
        <mxCell id="uZOT7oCsHmyGkdrWQbir-63" value="Preencher Horario" style="rounded=0;whiteSpace=wrap;html=1;" parent="1" vertex="1">
          <mxGeometry x="987" y="939" width="90" height="40" as="geometry" />
        </mxCell>
        <mxCell id="uZOT7oCsHmyGkdrWQbir-64" value="Main View" style="rounded=0;whiteSpace=wrap;html=1;" parent="1" vertex="1">
          <mxGeometry x="850" y="949" width="90" height="30" as="geometry" />
        </mxCell>
        <mxCell id="uZOT7oCsHmyGkdrWQbir-65" value="Área Informações Pessoais" style="rounded=0;whiteSpace=wrap;html=1;" parent="1" vertex="1">
          <mxGeometry x="702" y="939" width="120" height="40" as="geometry" />
        </mxCell>
        <mxCell id="uZOT7oCsHmyGkdrWQbir-66" value="Base de Dados" style="rounded=0;whiteSpace=wrap;html=1;" parent="1" vertex="1">
          <mxGeometry x="560" y="944" width="90" height="30" as="geometry" />
        </mxCell>
        <mxCell id="uZOT7oCsHmyGkdrWQbir-67" value="Login" style="rounded=0;whiteSpace=wrap;html=1;" parent="1" vertex="1">
          <mxGeometry x="420" y="944" width="80" height="30" as="geometry" />
        </mxCell>
        <mxCell id="uZOT7oCsHmyGkdrWQbir-69" value="Formador" style="shape=umlActor;verticalLabelPosition=bottom;verticalAlign=top;html=1;" parent="1" vertex="1">
          <mxGeometry x="285" y="902" width="30" height="60" as="geometry" />
        </mxCell>
        <mxCell id="AT_E7LujmundFD-M151w-9" value="" style="group" parent="1" vertex="1" connectable="0">
          <mxGeometry x="212" y="156" width="383" height="160" as="geometry" />
        </mxCell>
        <mxCell id="AT_E7LujmundFD-M151w-6" value="" style="group" parent="AT_E7LujmundFD-M151w-9" vertex="1" connectable="0">
          <mxGeometry y="60" width="383" height="100" as="geometry" />
        </mxCell>
        <mxCell id="uZOT7oCsHmyGkdrWQbir-14" value="Opção" style="shape=umlFrame;whiteSpace=wrap;html=1;pointerEvents=0;" parent="AT_E7LujmundFD-M151w-6" vertex="1">
          <mxGeometry width="380" height="100" as="geometry" />
        </mxCell>
        <mxCell id="uZOT7oCsHmyGkdrWQbir-16" value="Não encontrado" style="text;html=1;strokeColor=none;fillColor=none;align=center;verticalAlign=middle;whiteSpace=wrap;rounded=0;" parent="AT_E7LujmundFD-M151w-6" vertex="1">
          <mxGeometry x="262" y="5" width="121" height="30" as="geometry" />
        </mxCell>
        <mxCell id="uZOT7oCsHmyGkdrWQbir-21" value="Encontrado na base" style="text;html=1;strokeColor=none;fillColor=none;align=center;verticalAlign=middle;whiteSpace=wrap;rounded=0;" parent="AT_E7LujmundFD-M151w-6" vertex="1">
          <mxGeometry x="257" y="60" width="126" height="20" as="geometry" />
        </mxCell>
        <mxCell id="uZOT7oCsHmyGkdrWQbir-22" value="" style="endArrow=open;html=1;rounded=0;endFill=0;" parent="AT_E7LujmundFD-M151w-6" edge="1">
          <mxGeometry width="50" height="50" relative="1" as="geometry">
            <mxPoint x="373" y="30" as="sourcePoint" />
            <mxPoint x="128" y="30" as="targetPoint" />
          </mxGeometry>
        </mxCell>
        <mxCell id="uZOT7oCsHmyGkdrWQbir-23" value="" style="endArrow=open;html=1;rounded=0;endFill=0;" parent="AT_E7LujmundFD-M151w-6" edge="1">
          <mxGeometry width="50" height="50" relative="1" as="geometry">
            <mxPoint x="373" y="80" as="sourcePoint" />
            <mxPoint x="128" y="80" as="targetPoint" />
          </mxGeometry>
        </mxCell>
        <mxCell id="uZOT7oCsHmyGkdrWQbir-24" value="" style="endArrow=none;dashed=1;html=1;rounded=0;exitX=0;exitY=0.502;exitDx=0;exitDy=0;exitPerimeter=0;" parent="AT_E7LujmundFD-M151w-6" source="uZOT7oCsHmyGkdrWQbir-14" edge="1">
          <mxGeometry width="50" height="50" relative="1" as="geometry">
            <mxPoint x="-2" y="50" as="sourcePoint" />
            <mxPoint x="378" y="50" as="targetPoint" />
          </mxGeometry>
        </mxCell>
        <mxCell id="AT_E7LujmundFD-M151w-7" value="" style="group" parent="AT_E7LujmundFD-M151w-9" vertex="1" connectable="0">
          <mxGeometry x="103" width="125" height="32" as="geometry" />
        </mxCell>
        <mxCell id="uZOT7oCsHmyGkdrWQbir-5" value="" style="endArrow=open;html=1;rounded=0;endFill=0;" parent="AT_E7LujmundFD-M151w-7" edge="1">
          <mxGeometry width="50" height="50" relative="1" as="geometry">
            <mxPoint y="32" as="sourcePoint" />
            <mxPoint x="125" y="32" as="targetPoint" />
          </mxGeometry>
        </mxCell>
        <mxCell id="uZOT7oCsHmyGkdrWQbir-7" value="User &amp;amp;&lt;br&gt;Password" style="text;html=1;strokeColor=none;fillColor=none;align=center;verticalAlign=middle;whiteSpace=wrap;rounded=0;" parent="AT_E7LujmundFD-M151w-7" vertex="1">
          <mxGeometry x="35" width="60" height="30" as="geometry" />
        </mxCell>
        <mxCell id="AT_E7LujmundFD-M151w-8" value="" style="group" parent="AT_E7LujmundFD-M151w-9" vertex="1" connectable="0">
          <mxGeometry x="270" y="6" width="110" height="30" as="geometry" />
        </mxCell>
        <mxCell id="uZOT7oCsHmyGkdrWQbir-30" value="" style="endArrow=open;html=1;rounded=0;endFill=0;" parent="AT_E7LujmundFD-M151w-8" edge="1">
          <mxGeometry width="50" height="50" relative="1" as="geometry">
            <mxPoint y="26" as="sourcePoint" />
            <mxPoint x="110" y="26" as="targetPoint" />
          </mxGeometry>
        </mxCell>
        <mxCell id="uZOT7oCsHmyGkdrWQbir-31" value="Validar Login" style="text;html=1;strokeColor=none;fillColor=none;align=center;verticalAlign=middle;whiteSpace=wrap;rounded=0;" parent="AT_E7LujmundFD-M151w-8" vertex="1">
          <mxGeometry x="20" width="75" height="30" as="geometry" />
        </mxCell>
        <mxCell id="AT_E7LujmundFD-M151w-18" value="" style="endArrow=none;dashed=1;html=1;rounded=0;exitX=0;exitY=0.502;exitDx=0;exitDy=0;exitPerimeter=0;" parent="1" edge="1">
          <mxGeometry width="50" height="50" relative="1" as="geometry">
            <mxPoint x="515" y="431.20000000000005" as="sourcePoint" />
            <mxPoint x="751.8668407310705" y="431" as="targetPoint" />
          </mxGeometry>
        </mxCell>
        <mxCell id="AT_E7LujmundFD-M151w-23" value="" style="group" parent="1" vertex="1" connectable="0">
          <mxGeometry x="315" y="326" width="440" height="204.5" as="geometry" />
        </mxCell>
        <mxCell id="AT_E7LujmundFD-M151w-10" value="" style="group" parent="AT_E7LujmundFD-M151w-23" vertex="1" connectable="0">
          <mxGeometry x="306" y="170.5" width="129" height="34" as="geometry" />
        </mxCell>
        <mxCell id="uZOT7oCsHmyGkdrWQbir-45" value="" style="endArrow=open;html=1;rounded=0;endFill=0;" parent="AT_E7LujmundFD-M151w-10" edge="1">
          <mxGeometry width="50" height="50" relative="1" as="geometry">
            <mxPoint x="129" y="33" as="sourcePoint" />
            <mxPoint y="34" as="targetPoint" />
          </mxGeometry>
        </mxCell>
        <mxCell id="uZOT7oCsHmyGkdrWQbir-46" value="Adicionar a base dados" style="text;html=1;strokeColor=none;fillColor=none;align=center;verticalAlign=middle;whiteSpace=wrap;rounded=0;" parent="AT_E7LujmundFD-M151w-10" vertex="1">
          <mxGeometry x="28" width="80" height="30" as="geometry" />
        </mxCell>
        <mxCell id="AT_E7LujmundFD-M151w-21" style="edgeStyle=orthogonalEdgeStyle;rounded=0;orthogonalLoop=1;jettySize=auto;html=1;exitX=0.5;exitY=1;exitDx=0;exitDy=0;" parent="AT_E7LujmundFD-M151w-10" source="uZOT7oCsHmyGkdrWQbir-46" target="uZOT7oCsHmyGkdrWQbir-46" edge="1">
          <mxGeometry relative="1" as="geometry" />
        </mxCell>
        <mxCell id="AT_E7LujmundFD-M151w-11" value="" style="group" parent="AT_E7LujmundFD-M151w-23" vertex="1" connectable="0">
          <mxGeometry width="434" height="38" as="geometry" />
        </mxCell>
        <mxCell id="uZOT7oCsHmyGkdrWQbir-43" value="Preencher dados do formador" style="text;html=1;strokeColor=none;fillColor=none;align=center;verticalAlign=middle;whiteSpace=wrap;rounded=0;" parent="AT_E7LujmundFD-M151w-11" vertex="1">
          <mxGeometry x="314" width="104" height="36" as="geometry" />
        </mxCell>
        <mxCell id="uZOT7oCsHmyGkdrWQbir-44" value="" style="endArrow=open;html=1;rounded=0;endFill=0;" parent="AT_E7LujmundFD-M151w-11" edge="1">
          <mxGeometry width="50" height="50" relative="1" as="geometry">
            <mxPoint y="38" as="sourcePoint" />
            <mxPoint x="434" y="37" as="targetPoint" />
          </mxGeometry>
        </mxCell>
        <mxCell id="AT_E7LujmundFD-M151w-22" value="" style="group" parent="AT_E7LujmundFD-M151w-23" vertex="1" connectable="0">
          <mxGeometry x="200" y="58" width="240" height="100" as="geometry" />
        </mxCell>
        <mxCell id="AT_E7LujmundFD-M151w-13" value="Opção" style="shape=umlFrame;whiteSpace=wrap;html=1;pointerEvents=0;" parent="AT_E7LujmundFD-M151w-22" vertex="1">
          <mxGeometry width="238.1201044386423" height="100" as="geometry" />
        </mxCell>
        <mxCell id="AT_E7LujmundFD-M151w-14" value="Dados inválidos" style="text;html=1;strokeColor=none;fillColor=none;align=center;verticalAlign=middle;whiteSpace=wrap;rounded=0;" parent="AT_E7LujmundFD-M151w-22" vertex="1">
          <mxGeometry x="133" y="5" width="107" height="30" as="geometry" />
        </mxCell>
        <mxCell id="AT_E7LujmundFD-M151w-15" value="Dados válidos" style="text;html=1;strokeColor=none;fillColor=none;align=center;verticalAlign=middle;whiteSpace=wrap;rounded=0;" parent="AT_E7LujmundFD-M151w-22" vertex="1">
          <mxGeometry x="138" y="53" width="102" height="30" as="geometry" />
        </mxCell>
        <mxCell id="AT_E7LujmundFD-M151w-16" value="" style="endArrow=open;html=1;rounded=0;endFill=0;" parent="AT_E7LujmundFD-M151w-22" edge="1">
          <mxGeometry width="50" height="50" relative="1" as="geometry">
            <mxPoint x="233.73368146214102" y="30" as="sourcePoint" />
            <mxPoint x="111" y="30" as="targetPoint" />
          </mxGeometry>
        </mxCell>
        <mxCell id="AT_E7LujmundFD-M151w-17" value="" style="endArrow=open;html=1;rounded=0;endFill=0;" parent="AT_E7LujmundFD-M151w-22" edge="1">
          <mxGeometry width="50" height="50" relative="1" as="geometry">
            <mxPoint x="233.73368146214102" y="83" as="sourcePoint" />
            <mxPoint x="111" y="83" as="targetPoint" />
          </mxGeometry>
        </mxCell>
        <mxCell id="AT_E7LujmundFD-M151w-24" value="" style="group" parent="1" vertex="1" connectable="0">
          <mxGeometry x="329.5" y="542" width="551" height="52" as="geometry" />
        </mxCell>
        <mxCell id="AT_E7LujmundFD-M151w-2" value="" style="endArrow=open;html=1;rounded=0;endFill=0;" parent="AT_E7LujmundFD-M151w-24" edge="1">
          <mxGeometry width="50" height="50" relative="1" as="geometry">
            <mxPoint y="45" as="sourcePoint" />
            <mxPoint x="551" y="44" as="targetPoint" />
          </mxGeometry>
        </mxCell>
        <mxCell id="AT_E7LujmundFD-M151w-4" value="Executar ações na view" style="text;html=1;strokeColor=none;fillColor=none;align=center;verticalAlign=middle;whiteSpace=wrap;rounded=0;" parent="AT_E7LujmundFD-M151w-24" vertex="1">
          <mxGeometry x="8" width="82" height="52" as="geometry" />
        </mxCell>
        <mxCell id="AT_E7LujmundFD-M151w-29" value="" style="group" parent="1" vertex="1" connectable="0">
          <mxGeometry x="508" y="614" width="732" height="239" as="geometry" />
        </mxCell>
        <mxCell id="uZOT7oCsHmyGkdrWQbir-47" value="Opção" style="shape=umlFrame;whiteSpace=wrap;html=1;pointerEvents=0;" parent="AT_E7LujmundFD-M151w-29" vertex="1">
          <mxGeometry x="2" width="730" height="239" as="geometry" />
        </mxCell>
        <mxCell id="AT_E7LujmundFD-M151w-3" value="" style="endArrow=none;dashed=1;html=1;rounded=0;entryX=1;entryY=0.655;entryDx=0;entryDy=0;entryPerimeter=0;" parent="AT_E7LujmundFD-M151w-29" edge="1">
          <mxGeometry width="50" height="50" relative="1" as="geometry">
            <mxPoint y="146" as="sourcePoint" />
            <mxPoint x="732" y="146.54500000000007" as="targetPoint" />
          </mxGeometry>
        </mxCell>
        <mxCell id="AT_E7LujmundFD-M151w-27" value="" style="group" parent="AT_E7LujmundFD-M151w-29" vertex="1" connectable="0">
          <mxGeometry x="126.84000000000015" y="15" width="381.15999999999985" height="107" as="geometry" />
        </mxCell>
        <mxCell id="AT_E7LujmundFD-M151w-25" value="" style="group" parent="AT_E7LujmundFD-M151w-27" vertex="1" connectable="0">
          <mxGeometry x="279.15999999999985" width="102" height="50" as="geometry" />
        </mxCell>
        <mxCell id="uZOT7oCsHmyGkdrWQbir-52" value="Preencher horario disponivel" style="text;html=1;strokeColor=none;fillColor=none;align=center;verticalAlign=middle;whiteSpace=wrap;rounded=0;" parent="AT_E7LujmundFD-M151w-25" vertex="1">
          <mxGeometry width="102" height="50" as="geometry" />
        </mxCell>
        <mxCell id="uZOT7oCsHmyGkdrWQbir-53" value="" style="endArrow=open;html=1;rounded=0;endFill=0;" parent="AT_E7LujmundFD-M151w-25" edge="1">
          <mxGeometry width="50" height="50" relative="1" as="geometry">
            <mxPoint x="4" y="47" as="sourcePoint" />
            <mxPoint x="101" y="47" as="targetPoint" />
          </mxGeometry>
        </mxCell>
        <mxCell id="AT_E7LujmundFD-M151w-26" value="" style="group" parent="AT_E7LujmundFD-M151w-27" vertex="1" connectable="0">
          <mxGeometry y="70" width="381.15999999999985" height="37" as="geometry" />
        </mxCell>
        <mxCell id="uZOT7oCsHmyGkdrWQbir-54" value="" style="endArrow=open;html=1;rounded=0;endFill=0;entryX=0.032;entryY=0.508;entryDx=0;entryDy=0;entryPerimeter=0;" parent="AT_E7LujmundFD-M151w-26" edge="1">
          <mxGeometry width="50" height="50" relative="1" as="geometry">
            <mxPoint x="381.15999999999985" y="37" as="sourcePoint" />
            <mxPoint y="36.100000000000136" as="targetPoint" />
          </mxGeometry>
        </mxCell>
        <mxCell id="uZOT7oCsHmyGkdrWQbir-55" value="Adicionar a base dados" style="text;html=1;strokeColor=none;fillColor=none;align=center;verticalAlign=middle;whiteSpace=wrap;rounded=0;" parent="AT_E7LujmundFD-M151w-26" vertex="1">
          <mxGeometry x="293.15999999999985" width="80" height="30" as="geometry" />
        </mxCell>
        <mxCell id="AT_E7LujmundFD-M151w-28" value="" style="group" parent="AT_E7LujmundFD-M151w-29" vertex="1" connectable="0">
          <mxGeometry x="402" y="168" width="262" height="34" as="geometry" />
        </mxCell>
        <mxCell id="uZOT7oCsHmyGkdrWQbir-58" value="" style="endArrow=open;html=1;rounded=0;endFill=0;" parent="AT_E7LujmundFD-M151w-28" edge="1">
          <mxGeometry width="50" height="50" relative="1" as="geometry">
            <mxPoint y="34" as="sourcePoint" />
            <mxPoint x="262" y="34" as="targetPoint" />
          </mxGeometry>
        </mxCell>
        <mxCell id="uZOT7oCsHmyGkdrWQbir-59" value="Visualizar Informações" style="text;html=1;strokeColor=none;fillColor=none;align=center;verticalAlign=middle;whiteSpace=wrap;rounded=0;" parent="AT_E7LujmundFD-M151w-28" vertex="1">
          <mxGeometry x="163" width="80" height="25" as="geometry" />
        </mxCell>
        <mxCell id="qFIr9DF-QklRIPlyMcsx-1" value="- adicionar disponibilidadae por area e por horario&lt;br&gt;&lt;br&gt;- modulos array&lt;br&gt;- formador / modulo (associa o formador a um modulo) (ingrediente pizza)" style="text;html=1;strokeColor=none;fillColor=none;align=left;verticalAlign=middle;whiteSpace=wrap;rounded=0;" vertex="1" parent="1">
          <mxGeometry x="1294" y="240" width="321" height="261" as="geometry" />
        </mxCell>
      </root>
    </mxGraphModel>
  </diagram>
</mxfile>
